<svg xmlns="http://www.w3.org/2000/svg" viewBox="0 0 84.74 13">
  <defs>
    <style>
      .a {
        fill: #6b6b6b;
      }
    </style>
  </defs>
  <title>industrial-logo-dark</title>
  <g>
    <polygon class="a" points="12.29 0.24 8.94 0.24 8.94 11.41 7.82 11.41 7.82 0.24 7.82 0.24 4.47 0.24 4.47 11.41 3.35 11.41 3.35 0.24 0 0.24 0 12.53 1.12 12.53 1.12 1.35 2.23 1.35 2.23 12.53 5.59 12.53 5.59 1.35 6.71 1.35 6.71 12.53 10.06 12.53 10.06 1.35 11.18 1.35 11.18 12.53 12.29 12.53 12.29 0.24 12.29 0.24"/>
    <g>
      <rect class="a" x="17.79" y="0.29" width="2.12" height="12.42"/>
      <path class="a" d="M26,6.57c0,.41,0,.82,0,1.24l-.11-.36L23.4.29H21.14V12.71h2V5.5c0-.27,0-.52,0-.76l.15.46,2.63,7.52H28V.29H26Z"/>
      <path class="a" d="M32.26.29h-3V12.71h3c2.5,0,3.83-1.66,3.83-4.8v-3C36.05,1.83,34.78.29,32.26.29ZM31.37,2h.74c1.23,0,1.76.85,1.76,2.85V8.08c0,2.61-1,2.92-1.76,2.92h-.74Z"/>
      <path class="a" d="M41.66,9.68c0,.94-.42,1.45-1.18,1.45-1,0-1.18-.79-1.18-1.45V.29H37.19v9.5A3,3,0,0,0,40.48,13a3,3,0,0,0,3.28-3.21V.29h-2.1Z"/>
      <path class="a" d="M49.56,6,48.08,5a1.69,1.69,0,0,1-.93-1.6V2.86c0-.69.36-1.09,1-1.09s1,.17,1,1.54V4.57l2.12-.4v-1C51.28,1,50.24,0,48.11,0A2.86,2.86,0,0,0,45,3v.61A3.32,3.32,0,0,0,46.7,6.66l1.45.92a1.81,1.81,0,0,1,1,1.9v.44c0,.86-.34,1.3-1,1.3-.27,0-1.09,0-1.09-1.72V8.07l-2.15.4V9.62C44.87,11.8,46,13,48.1,13a2.88,2.88,0,0,0,3.21-3.11V9.24A3.36,3.36,0,0,0,49.56,6Z"/>
      <polygon class="a" points="51.98 2.19 54.35 2.19 54.35 12.71 56.44 12.71 56.44 2.19 58.78 2.19 58.78 0.29 51.98 0.29 51.98 2.19"/>
      <path class="a" d="M66,4.24V3.55c0-2.2-1.1-3.26-3.3-3.26h-3V12.71h2.12V7.64h.75l1.57,5.07h2.24L64.6,7.18A3,3,0,0,0,66,4.24Zm-4.19-2.3h.77c.77,0,1.25.28,1.25,1.66v.7c0,1.26-.36,1.78-1.23,1.78h-.79Z"/>
      <rect class="a" x="67.62" y="0.29" width="2.12" height="12.42"/>
      <path class="a" d="M73.34.29,70.86,12.71H73l.56-3.22H75.7l.56,3.22h2.15L75.91.29Zm1.29,3c0,.21.06.42.1.63l.68,3.86H73.86l.68-3.86C74.57,3.71,74.6,3.5,74.63,3.29Z"/>
      <polygon class="a" points="81.66 10.76 81.66 0.29 79.54 0.29 79.54 12.71 84.74 12.71 84.74 10.76 81.66 10.76"/>
    </g>
  </g>
</svg>
